<svg
    xmlns="http://www.w3.org/2000/svg"
    width="958"
    height="204"
    fill="none"
    viewBox="0 0 958 204"
>
    <path
    stroke="#7F5EFF"
    strokeLinecap="round"
    strokeLinejoin="round"
    strokeMiterlimit="10"
    strokeWidth="6"
    d="M254.249 9.53l-14.287 20.997M877.22 195.416l14.287-20.998M204.71 3.973l9.061 23.725M926.759 200.972l-9.062-23.725M177.421 34.774l22.837 11.112M954.048 170.171l-22.837-11.112"
    ></path>
    <path
    fill="#1E1E1E"
    d="M273.946 152.286c-.953 0-3.098-.096-6.435-.286a785.36 785.36 0 00-11.297-.572 525.608 525.608 0 00-12.012-.143c-1.906 0-3.527.047-4.862.143-1.239.095-2.621.19-4.147.286-1.43.19-3.432.286-6.006.286-1.239 0-2.24-.143-3.003-.429-.762-.286-1.144-.763-1.144-1.43 0-.763.382-1.24 1.144-1.43.763-.286 1.955-.572 3.575-.858 3.623-.668 6.102-1.764 7.436-3.289 1.43-1.526 2.145-4.004 2.145-7.436v-64.35c0-3.432-.715-5.863-2.145-7.293-1.334-1.43-3.813-2.479-7.436-3.146-1.62-.286-2.812-.572-3.575-.858-.762-.382-1.144-.954-1.144-1.716 0-.668.382-1.144 1.144-1.43.763-.286 1.764-.43 3.003-.43 2.479 0 4.433.048 5.863.144 1.526 0 3.003.047 4.433.143h5.577c1.526 0 3.432-.048 5.72-.143 2.384-.096 4.815-.239 7.293-.43a263.79 263.79 0 016.864-.428c2.098-.096 3.623-.143 4.576-.143 9.724 0 18.018 1.191 24.882 3.575 6.864 2.288 12.441 5.529 16.731 9.724 4.29 4.099 7.436 8.913 9.438 14.443 2.098 5.434 3.146 11.297 3.146 17.589 0 6.864-1.287 13.299-3.861 19.305a51.93 51.93 0 01-10.725 16.016c-4.576 4.576-9.867 8.151-15.873 10.725-6.006 2.574-12.441 3.861-19.305 3.861zm-1.716-5.005c7.436 0 14.014-1.812 19.734-5.434 5.72-3.623 10.153-8.628 13.299-15.015 3.242-6.388 4.862-13.728 4.862-22.022 0-6.864-1.144-12.966-3.432-18.304-2.288-5.434-5.338-9.963-9.152-13.585-3.813-3.718-8.103-6.53-12.87-8.437-4.766-2.002-9.581-3.003-14.443-3.003-4.099 0-7.626.143-10.582.429-2.86.19-5.052.905-6.578 2.145-1.525 1.239-2.288 3.289-2.288 6.149v63.778c0 3.813 1.049 6.673 3.146 8.58 2.098 1.906 4.767 3.193 8.008 3.861 3.337.572 6.769.858 10.296.858zm86.931 6.149c-5.243 0-9.819-1.287-13.728-3.861-3.909-2.574-6.959-6.197-9.152-10.868-2.193-4.767-3.289-10.249-3.289-16.445 0-5.53 1.239-10.535 3.718-15.015 2.574-4.576 5.958-8.247 10.153-11.011 4.195-2.765 8.771-4.147 13.728-4.147 3.813 0 7.198.762 10.153 2.288 2.955 1.525 5.243 3.67 6.864 6.435 1.716 2.669 2.574 5.767 2.574 9.295 0 2.955-1.43 4.433-4.29 4.433h-30.173c-1.335 0-2.288.381-2.86 1.144-.477.667-.715 2.049-.715 4.147 0 4.576 1.001 8.77 3.003 12.584 2.002 3.718 4.671 6.721 8.008 9.009 3.337 2.192 7.007 3.289 11.011 3.289 2.86 0 5.434-.525 7.722-1.573 2.383-1.144 4.481-2.765 6.292-4.862.381-.477.667-.763.858-.858a.97.97 0 01.715-.286c.763 0 1.144.476 1.144 1.43 0 1.811-.858 3.813-2.574 6.006-1.43 1.811-3.146 3.384-5.148 4.719a22.953 22.953 0 01-6.578 3.003 24.267 24.267 0 01-7.436 1.144zm-13.156-43.329h13.013c2.288 0 4.242-.048 5.863-.143a37.66 37.66 0 004.719-.572c.477-.096.763-.382.858-.858.191-.572.286-1.335.286-2.288 0-2.765-1.239-5.101-3.718-7.007-2.383-2.002-5.243-3.003-8.58-3.003-2.193 0-4.385.667-6.578 2.002-2.193 1.239-4.004 2.812-5.434 4.719-1.43 1.906-2.145 3.813-2.145 5.72 0 .953.572 1.43 1.716 1.43zm59.009 43.186c-2.956 0-5.72-.477-8.294-1.43-2.574-.858-4.767-2.098-6.578-3.718-.477-1.049-.858-2.813-1.144-5.291a348.092 348.092 0 01-.429-6.149c0-.858.619-1.287 1.859-1.287.381 0 .715.095 1.001.286a.918.918 0 01.715.715c1.239 4.671 3.193 8.008 5.863 10.01 2.764 2.002 5.529 3.003 8.294 3.003 2.764 0 5.1-.906 7.007-2.717 2.002-1.907 3.003-4.243 3.003-7.007 0-2.574-.858-4.767-2.574-6.578-1.716-1.907-4.719-4.195-9.009-6.864-3.242-2.002-5.863-3.909-7.865-5.72-2.002-1.812-3.48-3.671-4.433-5.577-.858-1.907-1.287-4.052-1.287-6.435 0-3.051.715-5.816 2.145-8.294 1.43-2.479 3.575-4.433 6.435-5.863 2.86-1.526 6.435-2.288 10.725-2.288 2.86 0 5.243.286 7.15.858 1.906.572 3.336 1.191 4.29 1.859.762 1.048 1.382 2.717 1.859 5.005.572 2.192.858 4.29.858 6.292 0 .667-.477 1.001-1.43 1.001a5.417 5.417 0 01-1.716-.286c-.477-.286-.811-.62-1.001-1.001-1.24-3.146-2.813-5.53-4.719-7.15-1.812-1.716-4.1-2.574-6.864-2.574-2.384 0-4.529.715-6.435 2.145-1.812 1.43-2.717 3.527-2.717 6.292 0 2.192.667 4.147 2.002 5.863 1.43 1.716 4.051 3.67 7.865 5.863 5.529 3.146 9.628 6.101 12.298 8.866 2.764 2.669 4.147 6.244 4.147 10.725 0 5.148-1.955 9.342-5.863 12.584-3.909 3.241-8.962 4.862-15.158 4.862zm31.923-1.573c-.858 0-1.573-.143-2.145-.429-.476-.191-.715-.572-.715-1.144 0-.763.334-1.287 1.001-1.573a20.987 20.987 0 012.288-.715c2.002-.477 3.528-1.049 4.576-1.716 1.049-.763 1.573-2.002 1.573-3.718v-31.031c0-2.574-.476-4.862-1.43-6.864-.858-2.002-2.526-3.194-5.005-3.575-.476-.096-.858-.286-1.144-.572-.19-.286-.286-.715-.286-1.287 0-1.049.429-1.621 1.287-1.716 3.814-.858 6.96-2.002 9.438-3.432 2.479-1.526 4.338-2.765 5.577-3.718.858-.668 1.526-1.001 2.002-1.001.572 0 .858.238.858.715 0 .762-.143 2.288-.429 4.576-.19 2.192-.381 4.671-.572 7.436-.19 2.669-.286 5.1-.286 7.293v33.176c0 1.62.525 2.812 1.573 3.575 1.144.762 2.67 1.382 4.576 1.859.763.19 1.478.429 2.145.715.763.286 1.144.81 1.144 1.573 0 1.048-.953 1.573-2.86 1.573-1.811 0-3.289-.096-4.433-.286l-3.146-.286c-.953-.096-2.288-.143-4.004-.143-1.62 0-2.955.047-4.004.143l-3.146.286c-1.048.19-2.526.286-4.433.286zm11.44-74.217c-2.002 0-3.718-.668-5.148-2.002-1.334-1.43-2.002-3.146-2.002-5.148 0-2.098.668-3.814 2.002-5.148 1.43-1.43 3.146-2.145 5.148-2.145 2.098 0 3.814.715 5.148 2.145 1.43 1.334 2.145 3.05 2.145 5.148 0 2.002-.715 3.718-2.145 5.148-1.334 1.334-3.05 2.002-5.148 2.002zm45.205 115.258c-8.103 0-14.538-1.573-19.305-4.719-4.671-3.051-7.007-7.198-7.007-12.441 0-2.479.381-4.576 1.144-6.292.763-1.716 1.954-3.194 3.575-4.433a393.938 393.938 0 015.291-4.433 285.058 285.058 0 007.007-5.434l6.006.286c-4.576 2.955-7.77 5.767-9.581 8.437-1.811 2.669-2.717 5.91-2.717 9.724 0 3.813 1.668 7.007 5.005 9.581 3.432 2.669 7.627 4.004 12.584 4.004 5.625 0 10.153-1.287 13.585-3.861 2.383-1.812 4.242-4.195 5.577-7.15 1.335-2.86 2.002-5.911 2.002-9.152 0-2.098-.763-3.861-2.288-5.291-1.43-1.335-3.718-2.431-6.864-3.289-3.146-.858-7.245-1.43-12.298-1.716-8.961-.668-15.206-1.859-18.733-3.575-3.432-1.716-5.148-4.386-5.148-8.008 0-.954.238-1.812.715-2.574.572-.858 1.43-1.764 2.574-2.717 2.193-1.716 3.813-2.956 4.862-3.718 1.049-.858 1.811-1.573 2.288-2.145.572-.572 1.096-1.287 1.573-2.145l4.862 2.431c-2.097.762-3.861 1.811-5.291 3.146-1.43 1.239-2.145 2.383-2.145 3.432 0 1.334.715 2.526 2.145 3.575 1.43.953 3.527 1.716 6.292 2.288 2.765.572 6.149 1.001 10.153 1.287 8.771.476 15.301 1.906 19.591 4.29 4.29 2.383 6.435 5.767 6.435 10.153 0 3.718-.953 7.34-2.86 10.868-1.811 3.622-4.242 6.911-7.293 9.867a35.854 35.854 0 01-10.296 7.007c-3.718 1.811-7.531 2.717-11.44 2.717zm1.716-61.633c3.623 0 6.626-1.812 9.009-5.434 2.383-3.718 3.575-8.294 3.575-13.728 0-2.765-.667-5.339-2.002-7.722-1.239-2.479-2.908-4.433-5.005-5.863-2.002-1.526-4.195-2.288-6.578-2.288-2.193 0-4.29.81-6.292 2.43-1.907 1.526-3.48 3.528-4.719 6.007-1.144 2.478-1.716 5.195-1.716 8.151 0 3.336.62 6.435 1.859 9.295 1.239 2.764 2.908 5.005 5.005 6.721 2.097 1.62 4.385 2.431 6.864 2.431zm-.858 5.005c-3.909 0-7.627-1.001-11.154-3.003-3.527-2.002-6.435-4.624-8.723-7.865-2.193-3.337-3.289-6.96-3.289-10.868 0-4.481 1.144-8.39 3.432-11.726 2.383-3.432 5.482-6.102 9.295-8.008 3.813-1.907 7.865-2.86 12.155-2.86 2.765 0 5.148.381 7.15 1.144 2.097.667 4.147 1.287 6.149 1.859 2.288.667 4.099 1.096 5.434 1.287a58.26 58.26 0 004.147.143c1.144 0 2.574-.048 4.29-.143 1.716-.191 2.908-.286 3.575-.286 1.239 0 1.859.715 1.859 2.145 0 .858-.477 1.763-1.43 2.717-.477.476-.858.715-1.144.715h-3.861c-2.574 0-4.004.381-4.29 1.144l-.429 1.716c-.095.667-.191 1.43-.286 2.288a23.373 23.373 0 00-.143 2.574c0 4.862-1.049 9.342-3.146 13.442-2.097 4.099-4.862 7.388-8.294 9.867-3.432 2.478-7.198 3.718-11.297 3.718zm39.693 15.587c-.858 0-1.573-.143-2.145-.429-.477-.191-.715-.572-.715-1.144 0-.763.286-1.24.858-1.43.572-.286 1.382-.572 2.431-.858a21.902 21.902 0 004.147-1.573c1.334-.668 2.002-1.955 2.002-3.861v-30.745c0-2.574-.286-4.767-.858-6.578-.477-1.812-1.955-3.051-4.433-3.718a9.456 9.456 0 01-1.001-.572c-.286-.286-.429-.715-.429-1.287 0-1.049.429-1.621 1.287-1.716 3.336-.858 6.053-1.907 8.151-3.146a63.245 63.245 0 006.149-4.147c.286-.191.524-.334.715-.43.286-.19.572-.285.858-.285.19 0 .333.095.429.286.19.19.286.429.286.715 0 .667-.143 2.05-.429 4.147-.191 2.002-.286 3.67-.286 5.005v1.144c.095.286.19.476.286.572 3.336-3.146 6.864-5.53 10.582-7.15 3.813-1.621 7.96-2.431 12.441-2.431 4.671 0 8.532 1.906 11.583 5.72 3.05 3.813 4.576 8.532 4.576 14.157v30.459c0 1.906.667 3.193 2.002 3.861a53.385 53.385 0 004.147 1.573c.762.286 1.477.619 2.145 1.001.762.286 1.144.81 1.144 1.573 0 .572-.334.905-1.001 1.001-.668.19-1.287.286-1.859.286-1.907 0-3.385-.096-4.433-.286-1.049-.096-2.05-.191-3.003-.286-.954-.096-2.288-.143-4.004-.143-1.621 0-2.956.047-4.004.143-1.049.095-2.145.19-3.289.286-1.049.19-2.527.286-4.433.286-.477 0-1.097-.096-1.859-.286-.668-.096-1.001-.429-1.001-1.001 0-.763.333-1.287 1.001-1.573a23.544 23.544 0 012.288-1.001 53.54 53.54 0 004.147-1.573c1.334-.668 2.002-1.955 2.002-3.861v-30.03c0-4.195-1.192-7.436-3.575-9.724-2.288-2.384-5.387-3.623-9.295-3.718-3.432 0-6.435.572-9.009 1.716-2.574 1.048-4.862 2.383-6.864 4.004-.382.381-.668.905-.858 1.573a5.389 5.389 0 00-.286 1.716v34.463c0 1.906.667 3.193 2.002 3.861a21.876 21.876 0 004.147 1.573c2.192.572 3.289 1.334 3.289 2.288 0 .572-.239.953-.715 1.144-.477.286-1.192.429-2.145.429-1.907 0-3.432-.096-4.576-.286-1.049-.096-2.05-.191-3.003-.286-.954-.096-2.288-.143-4.004-.143-1.621 0-2.956.047-4.004.143-.954.095-2.002.19-3.146.286-1.049.19-2.527.286-4.433.286zm98.429 1.859c-4.004 0-7.722-.62-11.154-1.859a28.794 28.794 0 01-9.009-5.005 16.015 16.015 0 01-1.144-1.287 7.931 7.931 0 01-.715-1.573c-.476-1.907-.81-4.386-1.001-7.436-.095-3.051-.238-5.577-.429-7.579 0-.668.286-1.144.858-1.43.572-.382 1.24-.572 2.002-.572.477 0 .954.143 1.43.429.477.19.763.572.858 1.144 1.907 7.34 4.719 12.584 8.437 15.73 3.814 3.146 7.77 4.719 11.869 4.719 3.337 0 6.292-.715 8.866-2.145a15.167 15.167 0 006.006-6.006c1.526-2.67 2.288-5.768 2.288-9.295 0-3.909-.667-7.055-2.002-9.438-1.239-2.479-3.05-4.624-5.434-6.435-2.383-1.812-5.291-3.766-8.723-5.863a1128.791 1128.791 0 01-11.011-7.15c-3.622-2.479-6.625-5.291-9.009-8.437-2.383-3.242-3.575-7.15-3.575-11.726 0-4.862 1.097-9.248 3.289-13.156 2.193-3.909 5.482-7.007 9.867-9.295 4.481-2.384 10.058-3.575 16.731-3.575 3.432 0 6.388.381 8.866 1.144 2.574.667 4.624 1.334 6.149 2.002a3.931 3.931 0 011.859 1.43c.572.667.954 1.382 1.144 2.145.572 2.002 1.192 4.29 1.859 6.864.668 2.574 1.001 5.005 1.001 7.293 0 1.048-.715 1.573-2.145 1.573-.858 0-1.716-.191-2.574-.572-.762-.382-1.239-.858-1.43-1.43-2.002-5.053-4.337-8.914-7.007-11.583-2.669-2.67-6.053-4.004-10.153-4.004-2.86 0-5.529.524-8.008 1.573-2.478 1.048-4.528 2.764-6.149 5.148-1.525 2.383-2.288 5.577-2.288 9.58 0 2.86.906 5.482 2.717 7.866 1.907 2.288 4.386 4.48 7.436 6.578a256.633 256.633 0 009.867 6.435 108.647 108.647 0 019.724 6.578c3.242 2.383 5.863 5.243 7.865 8.58 2.098 3.241 3.146 7.245 3.146 12.012 0 5.624-1.287 10.582-3.861 14.872-2.574 4.194-6.196 7.436-10.868 9.724-4.671 2.288-10.153 3.432-16.445 3.432zm67.76-.143c-4.767 0-9.104-1.192-13.013-3.575-3.813-2.479-6.864-5.816-9.152-10.01-2.193-4.29-3.289-9.057-3.289-14.3 0-6.197 1.335-11.822 4.004-16.874 2.765-5.053 6.435-9.057 11.011-12.012 4.576-3.051 9.629-4.576 15.158-4.576 6.197 0 11.631 1.668 16.302 5.005 1.144.858 1.716 1.763 1.716 2.717 0 .762-.334 1.62-1.001 2.574a9.834 9.834 0 01-2.431 2.431c-.953.572-1.859.858-2.717.858-.477 0-.953-.143-1.43-.429a22.238 22.238 0 00-1.573-1.144c-2.097-1.621-4.433-3.146-7.007-4.576-2.574-1.43-4.719-2.145-6.435-2.145-4.671 0-8.485 2.192-11.44 6.578-2.86 4.29-4.29 9.962-4.29 17.017 0 4.48.953 8.532 2.86 12.155 2.002 3.622 4.624 6.482 7.865 8.58 3.337 2.097 7.007 3.146 11.011 3.146 2.765 0 5.148-.429 7.15-1.287 2.002-.954 4.147-2.574 6.435-4.862a1.79 1.79 0 01.715-.429c.286-.191.524-.286.715-.286 1.049 0 1.573.667 1.573 2.002 0 .572-.191 1.239-.572 2.002-.286.667-.81 1.477-1.573 2.431a24.8 24.8 0 01-5.434 5.005c-2.097 1.334-4.433 2.335-7.007 3.003-2.479.667-5.196 1.001-8.151 1.001zm58.443-.143c-5.338 0-10.153-1.24-14.443-3.718-4.29-2.479-7.722-5.863-10.296-10.153-2.478-4.386-3.718-9.343-3.718-14.872 0-4.004.763-7.913 2.288-11.726 1.621-3.814 3.861-7.293 6.721-10.439a31.914 31.914 0 0110.01-7.436c3.814-1.907 7.913-2.86 12.298-2.86 5.53 0 10.487 1.334 14.872 4.004 4.481 2.669 8.008 6.196 10.582 10.582 2.67 4.29 4.004 9.009 4.004 14.157 0 5.529-1.239 10.772-3.718 15.73-2.383 4.957-5.958 9.009-10.725 12.155-4.766 3.05-10.725 4.576-17.875 4.576zm3.003-4.29c3.242 0 6.149-.62 8.723-1.859 2.574-1.24 4.576-3.242 6.006-6.006 1.144-2.193 1.907-4.862 2.288-8.008.382-3.146.572-6.102.572-8.866 0-4.576-.858-8.962-2.574-13.156-1.62-4.29-3.956-7.77-7.007-10.439-2.955-2.765-6.482-4.147-10.582-4.147-2.574 0-4.909.429-7.007 1.287-2.002.762-3.861 2.24-5.577 4.433-1.906 2.383-3.146 5.291-3.718 8.723a62.527 62.527 0 00-.858 10.296c0 4.671.858 9.152 2.574 13.442 1.716 4.194 4.052 7.626 7.007 10.296 2.956 2.669 6.34 4.004 10.153 4.004zm86.675 5.005c-.667 0-1.001-.382-1.001-1.144 0-.954.096-2.336.286-4.147.286-1.907.429-3.48.429-4.719v-.429-.429c-3.718 3.622-7.483 6.244-11.297 7.865-3.718 1.525-7.817 2.288-12.298 2.288-3.05 0-5.815-.668-8.294-2.002-2.478-1.24-4.433-3.099-5.863-5.577-1.43-2.574-2.145-5.72-2.145-9.438v-29.029c0-2.098-.476-3.766-1.43-5.005-.953-1.24-2.526-2.288-4.719-3.146a5.625 5.625 0 01-1.287-.715c-.381-.286-.572-.81-.572-1.573 0-.858.191-1.43.572-1.716a4.45 4.45 0 011.573-.572c3.242-.191 5.72-.43 7.436-.715 1.812-.382 4.052-.906 6.721-1.573.286-.096.477-.143.572-.143h.572c1.049 0 1.526.667 1.43 2.002-.286 2.192-.524 4.051-.715 5.577-.095 1.43-.143 3.241-.143 5.434v27.885c0 2.288.572 4.433 1.716 6.435a15.008 15.008 0 004.433 4.719c1.907 1.239 3.861 1.859 5.863 1.859 2.479 0 4.624-.143 6.435-.429 1.907-.286 3.766-1.097 5.577-2.431 1.049-.763 2.384-2.002 4.004-3.718 1.621-1.716 2.431-4.052 2.431-7.007V106.24c0-2.002-.619-3.48-1.859-4.433a9.089 9.089 0 00-4.004-2.145c-1.525-.382-2.764-.572-3.718-.572-.858 0-1.573-.143-2.145-.43-.572-.38-.858-1.048-.858-2.001 0-.858.286-1.43.858-1.716a5.392 5.392 0 012.145-.43c2.956-.095 5.387-.19 7.293-.285 2.002-.191 3.766-.43 5.291-.715 1.621-.382 3.289-.81 5.005-1.287.191-.096.429-.143.715-.143.286-.096.525-.143.715-.143 1.24 0 1.859.524 1.859 1.573 0 .095-.047.286-.143.572 0 .19-.047.429-.143.715-.095.286-.238 1.096-.429 2.43a67.653 67.653 0 01-.429 4.148c-.095 1.43-.143 2.526-.143 3.289V137.7c0 2.574.239 4.433.715 5.577.572 1.048 1.192 1.573 1.859 1.573.763 0 1.859-.048 3.289-.143 1.526-.191 2.622-.286 3.289-.286.477 0 .954.095 1.43.286.477.19.715.715.715 1.573 0 .762-.19 1.287-.572 1.573-.381.19-.858.333-1.43.429-3.718.476-6.911 1.191-9.581 2.145a170.52 170.52 0 00-7.15 2.717 943 943 0 00-1.287.429c-.572.286-1.096.429-1.573.429zm50.099-.715c-4.671 0-8.341-1.43-11.011-4.29-2.574-2.86-3.861-7.103-3.861-12.727v-33.176c0-.763-.286-1.287-.858-1.573-.572-.382-1.811-.572-3.718-.572h-.858c-.476 0-.905-.286-1.287-.858a5.05 5.05 0 01-.429-2.002c0-.191.143-.477.429-.858.286-.382.477-.62.572-.715a60.446 60.446 0 005.148-4.004 60.051 60.051 0 004.29-3.861c1.335-1.335 2.431-2.527 3.289-3.575l1.144-1.144c.382-.382.811-.572 1.287-.572.477 0 .906.095 1.287.286.477.19.668.62.572 1.287l-.715 6.435c-.095 1.048.143 1.763.715 2.145.572.381 1.478.572 2.717.572h16.302c.382 0 .715.333 1.001 1 .286.573.429 1.288.429 2.146 0 .858-.143 1.716-.429 2.574-.286.762-.619 1.144-1.001 1.144H899.4c-2.383 0-3.956.19-4.719.572-.667.381-1.001 1.525-1.001 3.432v28.171c0 3.813.811 6.816 2.431 9.009 1.621 2.192 3.957 3.289 7.007 3.289 2.765 0 4.91-.191 6.435-.572a15.192 15.192 0 004.147-2.002c.191-.191.382-.286.572-.286.382 0 .62.238.715.715.191.381.286.81.286 1.287 0 .476-.81 1.43-2.431 2.86-1.525 1.43-3.575 2.764-6.149 4.004-2.478 1.239-5.195 1.859-8.151 1.859z"
    ></path>
    <path
    stroke="#1E1E1E"
    strokeLinecap="round"
    strokeLinejoin="round"
    strokeMiterlimit="10"
    strokeWidth="11"
    d="M145.528 195.19l-31.879-55.462"
    ></path>
    <path
    stroke="#1E1E1E"
    strokeLinecap="round"
    strokeLinejoin="round"
    strokeMiterlimit="10"
    strokeWidth="9"
    d="M68.247 130.749c34.713 0 62.854-28.141 62.854-62.855 0-34.713-28.141-62.854-62.854-62.854-34.714 0-62.854 28.14-62.854 62.854s28.14 62.855 62.854 62.855z"
    ></path>
    <path
    fill="#7F5EFF"
    d="M55.859 49.933l12.23 44.499-44.653-11.659 32.423-32.84z"
    ></path>
    <path fill="#7F5EFF" d="M68.247 36.467H86.205V54.425H68.247z"></path>
    <circle cx="95.185" cy="74.629" r="17.958" fill="#7F5EFF"></circle>
</svg>